<svg width="73" height="60" viewBox="0 0 73 60" fill="none" xmlns="http://www.w3.org/2000/svg">
<g opacity="0.8">
<path fill-rule="evenodd" clip-rule="evenodd" d="M7.80427 36.1229C6.86672 35.2019 5.34088 35.2019 4.40314 36.1229C4.35115 36.174 4.30139 36.2278 4.25385 36.2841C4.2063 36.2276 4.15654 36.174 4.10437 36.1227C3.16682 35.2018 1.64098 35.2018 0.703236 36.1227C-0.234504 37.0437 -0.234319 38.5426 0.703236 39.4637L4.12287 42.8229C4.15894 42.8583 4.2063 42.8761 4.25366 42.8761C4.30102 42.8761 4.34838 42.8583 4.38445 42.8229L7.80409 39.4637C8.74201 38.5427 8.74201 37.0439 7.80427 36.1229Z" fill="#FF523D"/>
</g>
<g opacity="0.8">
<path fill-rule="evenodd" clip-rule="evenodd" d="M18.9705 36.1229C18.033 35.2019 16.5071 35.2019 15.5694 36.1229C15.5174 36.174 15.4676 36.2278 15.4201 36.2841C15.3726 36.2276 15.3228 36.174 15.2706 36.1227C14.3331 35.2018 12.8072 35.2018 11.8695 36.1227C10.9318 37.0437 10.9319 38.5426 11.8695 39.4637L15.2891 42.8229C15.3252 42.8583 15.3726 42.8761 15.4199 42.8761C15.4673 42.8761 15.5146 42.8583 15.5507 42.8229L18.9703 39.4637C19.9083 38.5427 19.9083 37.0439 18.9705 36.1229Z" fill="#FF523D"/>
</g>
<path d="M12.5068 0H7.89581L2.15186 3.63671V7.98716L7.4653 4.65634H7.60125V23.2024H12.5068V0Z" fill="#18216D"/>
<path d="M25.964 23.5196C31.1301 23.5196 34.6422 20.1548 34.6309 15.4645C34.6422 11.0234 31.538 7.82855 27.3575 7.82855C25.3182 7.82855 23.5622 8.67825 22.7465 9.82251H22.6105L23.211 4.01057H33.3507V0H19.1664L18.0675 12.2357L22.4292 13.0174C23.143 12.0544 24.5252 11.4539 25.896 11.4539C28.2298 11.4653 29.9066 13.1533 29.9066 15.5891C29.9066 18.0023 28.2638 19.6677 25.964 19.6677C24.0153 19.6677 22.4406 18.4441 22.3273 16.6427H17.569C17.6596 20.6533 21.1604 23.5196 25.964 23.5196Z" fill="#18216D"/>
<path d="M37.5659 23.2024H42.3922V17.6737L43.6951 16.1896L48.4421 23.2024H54.0954L47.3091 13.3346L53.7668 5.8006H48.2268L42.6528 12.4056H42.3922V0H37.5659V23.2024Z" fill="#18216D"/>
<path d="M1.53477 59.8912L2.15712 58.139H4.65863L5.28099 59.8912H6.06649L3.79459 53.7039H3.02117L0.749268 59.8912H1.53477ZM2.39277 57.4743L3.38371 54.6828H3.43205L4.42298 57.4743H2.39277Z" fill="#18216D"/>
<path d="M8.81876 59.9879C9.84595 59.9879 10.5227 59.3595 10.6435 58.5378H9.93054C9.79761 59.0453 9.37465 59.3474 8.81876 59.3474C7.97283 59.3474 7.42903 58.6465 7.42903 57.571C7.42903 56.5196 7.98492 55.8308 8.81876 55.8308C9.44715 55.8308 9.82178 56.2175 9.93054 56.6405H10.6435C10.5227 55.7704 9.78552 55.1903 8.80667 55.1903C7.54987 55.1903 6.71604 56.1813 6.71604 57.5952C6.71604 58.9849 7.51362 59.9879 8.81876 59.9879Z" fill="#18216D"/>
<path d="M13.704 55.2507H12.713V54.139H12V55.2507H11.2991V55.855H12V58.7553C12 59.5649 12.6526 59.9516 13.2568 59.9516C13.5227 59.9516 13.6919 59.9033 13.7885 59.8671L13.6435 59.2266C13.5831 59.2387 13.4864 59.2628 13.3293 59.2628C13.0151 59.2628 12.713 59.1661 12.713 58.5619V55.855H13.704V55.2507Z" fill="#18216D"/>
<path d="M14.7765 59.8912H15.4895V55.2507H14.7765V59.8912ZM15.139 54.4773C15.4169 54.4773 15.6466 54.2598 15.6466 53.9939C15.6466 53.7281 15.4169 53.5106 15.139 53.5106C14.8611 53.5106 14.6314 53.7281 14.6314 53.9939C14.6314 54.2598 14.8611 54.4773 15.139 54.4773Z" fill="#18216D"/>
<path d="M20.5899 55.2507H19.8165L18.5355 58.9486H18.4872L17.2062 55.2507H16.4328L18.1488 59.8912H18.8739L20.5899 55.2507Z" fill="#18216D"/>
<path d="M23.3104 59.9879C24.253 59.9879 24.9419 59.5166 25.1594 58.8157L24.4706 58.6223C24.2893 59.1057 23.8694 59.3474 23.3104 59.3474C22.4736 59.3474 21.8966 58.8066 21.8633 57.8127H25.2319V57.5106C25.2319 55.7825 24.2047 55.1903 23.2379 55.1903C21.9811 55.1903 21.1473 56.1813 21.1473 57.6072C21.1473 59.0332 21.9691 59.9879 23.3104 59.9879ZM21.8633 57.1964C21.9117 56.4743 22.4222 55.8308 23.2379 55.8308C24.0114 55.8308 24.5068 56.4109 24.5068 57.1964H21.8633Z" fill="#18216D"/>
<path d="M30.7153 59.8912C32.6005 59.8912 33.6639 58.719 33.6639 56.7855C33.6639 54.864 32.6005 53.7039 30.7999 53.7039H28.8059V59.8912H30.7153ZM29.5552 59.2266V54.3686H30.7515C32.2017 54.3686 32.9388 55.287 32.9388 56.7855C32.9388 58.2961 32.2017 59.2266 30.6669 59.2266H29.5552Z" fill="#18216D"/>
<path d="M36.7092 59.9879C37.966 59.9879 38.812 59.0332 38.812 57.5952C38.812 56.145 37.966 55.1903 36.7092 55.1903C35.4524 55.1903 34.6065 56.145 34.6065 57.5952C34.6065 59.0332 35.4524 59.9879 36.7092 59.9879ZM36.7092 59.3474C35.7546 59.3474 35.3195 58.5257 35.3195 57.5952C35.3195 56.6646 35.7546 55.8308 36.7092 55.8308C37.6639 55.8308 38.099 56.6646 38.099 57.5952C38.099 58.5257 37.6639 59.3474 36.7092 59.3474Z" fill="#18216D"/>
<path d="M40.7938 59.8912H41.4947L42.5098 56.3263H42.5824L43.5975 59.8912H44.2984L45.7123 55.2507H44.963L43.96 58.7915H43.9117L42.9328 55.2507H42.1715L41.1805 58.8036H41.1322L40.1292 55.2507H39.3799L40.7938 59.8912Z" fill="#18216D"/>
<path d="M47.3679 57.0997C47.3679 56.29 47.8694 55.8308 48.5521 55.8308C49.2138 55.8308 49.6156 56.2628 49.6156 56.9909V59.8912H50.3286V56.9426C50.3286 55.7583 49.6972 55.1903 48.7576 55.1903C48.0567 55.1903 47.6216 55.5045 47.4041 55.9758H47.3437V55.2507H46.6549V59.8912H47.3679V57.0997Z" fill="#18216D"/>
<path d="M52.3444 53.7039H51.6315V59.8912H52.3444V53.7039Z" fill="#18216D"/>
<path d="M55.5355 59.9879C56.7923 59.9879 57.6382 59.0332 57.6382 57.5952C57.6382 56.145 56.7923 55.1903 55.5355 55.1903C54.2787 55.1903 53.4328 56.145 53.4328 57.5952C53.4328 59.0332 54.2787 59.9879 55.5355 59.9879ZM55.5355 59.3474C54.5808 59.3474 54.1458 58.5257 54.1458 57.5952C54.1458 56.6646 54.5808 55.8308 55.5355 55.8308C56.4902 55.8308 56.9253 56.6646 56.9253 57.5952C56.9253 58.5257 56.4902 59.3474 55.5355 59.3474Z" fill="#18216D"/>
<path d="M60.0922 60C60.9018 60 61.3248 59.5649 61.4698 59.2628H61.5061V59.8912H62.2191V56.8338C62.2191 55.3595 61.0952 55.1903 60.5031 55.1903C59.8021 55.1903 59.0046 55.432 58.642 56.2779L59.3188 56.5196C59.4759 56.1813 59.8475 55.8187 60.5272 55.8187C61.1828 55.8187 61.5061 56.1661 61.5061 56.7613V56.7855C61.5061 57.1299 61.1556 57.0997 60.3097 57.2084C59.4487 57.3202 58.5091 57.5106 58.5091 58.574C58.5091 59.4803 59.21 60 60.0922 60ZM60.2009 59.3595C59.633 59.3595 59.2221 59.1057 59.2221 58.6103C59.2221 58.0665 59.7176 57.8973 60.2734 57.8248C60.5756 57.7885 61.3852 57.7039 61.5061 57.5589V58.2115C61.5061 58.7915 61.0469 59.3595 60.2009 59.3595Z" fill="#18216D"/>
<path d="M65.2727 59.9879C66.167 59.9879 66.4691 59.432 66.6262 59.1782H66.7108V59.8912H67.3996V53.7039H66.6866V55.9879H66.6262C66.4691 55.7462 66.1911 55.1903 65.2848 55.1903C64.1126 55.1903 63.3029 56.1208 63.3029 57.5831C63.3029 59.0574 64.1126 59.9879 65.2727 59.9879ZM65.3694 59.3474C64.4751 59.3474 64.0159 58.5619 64.0159 57.571C64.0159 56.5921 64.463 55.8308 65.3694 55.8308C66.2395 55.8308 66.6987 56.5317 66.6987 57.571C66.6987 58.6223 66.2274 59.3474 65.3694 59.3474Z" fill="#18216D"/>
<path d="M72.0914 56.29C71.8679 55.6314 71.3663 55.1903 70.4479 55.1903C69.4691 55.1903 68.744 55.7462 68.744 56.5317C68.744 57.1722 69.1247 57.6012 69.9766 57.8006L70.75 57.9819C71.2183 58.0906 71.4389 58.3142 71.4389 58.6344C71.4389 59.0332 71.0159 59.3595 70.3512 59.3595C69.7682 59.3595 69.4026 59.1087 69.2757 58.6103L68.599 58.7794C68.7651 59.568 69.4147 59.9879 70.3633 59.9879C71.4419 59.9879 72.176 59.3988 72.176 58.5982C72.176 57.9516 71.7712 57.5438 70.9434 57.3414L70.2546 57.1722C69.7047 57.0362 69.457 56.8519 69.457 56.4955C69.457 56.0967 69.8799 55.8066 70.4479 55.8066C71.0703 55.8066 71.3271 56.151 71.4509 56.4713L72.0914 56.29Z" fill="#18216D"/>
<g opacity="0.8">
<path fill-rule="evenodd" clip-rule="evenodd" d="M30.1365 36.1229C29.199 35.2019 27.6732 35.2019 26.7354 36.1229C26.6834 36.174 26.6337 36.2278 26.5861 36.2841C26.5386 36.2276 26.4888 36.174 26.4366 36.1227C25.4991 35.2018 23.9733 35.2018 23.0355 36.1227C22.0978 37.0437 22.098 38.5426 23.0355 39.4637L26.4551 42.8229C26.4912 42.8583 26.5386 42.8761 26.5859 42.8761C26.6333 42.8761 26.6807 42.8583 26.7167 42.8229L30.1364 39.4637C31.0743 38.5427 31.0743 37.0439 30.1365 36.1229Z" fill="#FF523D"/>
</g>
<path opacity="0.8" fill-rule="evenodd" clip-rule="evenodd" d="M41.3028 36.1229C40.3653 35.2019 38.8394 35.2019 37.9017 36.1229C37.8497 36.174 37.7999 36.2278 37.7524 36.2841C37.7048 36.2276 37.6551 36.174 37.6029 36.1227C36.6654 35.2018 35.1395 35.2018 34.2018 36.1227C33.264 37.0437 33.2642 38.5426 34.2018 39.4637L37.6214 42.8229C37.6575 42.8583 37.7048 42.8761 37.7522 42.8761C37.7996 42.8761 37.8469 42.8583 37.883 42.8229L41.3026 39.4637C42.2405 38.5427 42.2405 37.0439 41.3028 36.1229Z" fill="#FF523D"/>
<path opacity="0.8" fill-rule="evenodd" clip-rule="evenodd" d="M52.4688 36.1229C51.5313 35.2019 50.0054 35.2019 49.0677 36.1229C49.0157 36.174 48.9659 36.2278 48.9184 36.2841C48.8709 36.2276 48.8211 36.174 48.7689 36.1227C47.8314 35.2018 46.3055 35.2018 45.3678 36.1227C44.43 37.0437 44.4302 38.5426 45.3678 39.4637L48.7874 42.8229C48.8235 42.8583 48.8709 42.8761 48.9182 42.8761C48.9656 42.8761 49.0129 42.8583 49.049 42.8229L52.4686 39.4637C53.4066 38.5427 53.4066 37.0439 52.4688 36.1229Z" fill="#FF523D"/>
</svg>
