<svg width="71" height="20" viewBox="0 0 71 20" fill="none" xmlns="http://www.w3.org/2000/svg">
<path fill-rule="evenodd" clip-rule="evenodd" d="M0 2.85714C0 1.27919 1.27919 0 2.85714 0H17.1429C18.7208 0 20 1.27919 20 2.85714V17.1429C20 18.7208 18.7208 20 17.1429 20H2.85714C1.27919 20 0 18.7208 0 17.1429V2.85714ZM3.13988 4.63203V15.7143H6.0836V9.26406H6.17018L8.63772 15.6277H10.4126L12.8801 9.30735H12.9667V15.7143H15.9104V4.63203H12.1659L9.5901 10.9091H9.46023L6.88447 4.63203H3.13988ZM9.52381 5.71429C10.5758 5.71429 11.4286 4.8615 11.4286 3.80952C11.4286 2.75755 10.5758 1.90476 9.52381 1.90476C8.47184 1.90476 7.61905 2.75755 7.61905 3.80952C7.61905 4.8615 8.47184 5.71429 9.52381 5.71429Z" fill="#005FEC"/>
<path d="M25.2312 14.375H26.8381V10.229C26.8381 9.39009 27.3974 8.82191 28.0899 8.82191C28.769 8.82191 29.2351 9.27912 29.2351 9.98047V14.375H30.8109V10.1225C30.8109 9.35458 31.2681 8.82191 32.0449 8.82191C32.693 8.82191 33.2079 9.20366 33.2079 10.047V14.375H34.8193V9.79847C34.8193 8.27592 33.9404 7.46804 32.6886 7.46804C31.6987 7.46804 30.9441 7.95632 30.6422 8.71537H30.5712C30.3093 7.943 29.6479 7.46804 28.7291 7.46804C27.8147 7.46804 27.1311 7.93856 26.847 8.71537H26.7671V7.55682H25.2312V14.375Z" fill="#18216D"/>
<path d="M39.4679 14.5082C41.0571 14.5082 42.149 13.7314 42.4331 12.5462L40.9328 12.3775C40.7153 12.9545 40.1826 13.2564 39.4901 13.2564C38.4514 13.2564 37.7634 12.5728 37.7501 11.4054H42.4997V10.9126C42.4997 8.52006 41.0615 7.46804 39.3836 7.46804C37.4305 7.46804 36.1565 8.90181 36.1565 11.0059C36.1565 13.1454 37.4127 14.5082 39.4679 14.5082ZM37.7545 10.3223C37.8033 9.45223 38.447 8.71981 39.4058 8.71981C40.3291 8.71981 40.9505 9.39453 40.9594 10.3223H37.7545Z" fill="#18216D"/>
<path d="M47.2638 7.55682H45.9188V5.92329H44.3119V7.55682H43.3442V8.79971H44.3119V12.5906C44.303 13.8734 45.2352 14.5037 46.4426 14.4682C46.8998 14.4549 47.215 14.3661 47.3881 14.3084L47.1173 13.0522C47.0285 13.0744 46.8465 13.1143 46.6468 13.1143C46.2428 13.1143 45.9188 12.9723 45.9188 12.3242V8.79971H47.2638V7.55682Z" fill="#18216D"/>
<path d="M52.0123 7.55682H50.6673V5.92329H49.0604V7.55682H48.0928V8.79971H49.0604V12.5906C49.0516 13.8734 49.9837 14.5037 51.1911 14.4682C51.6483 14.4549 51.9635 14.3661 52.1366 14.3084L51.8658 13.0522C51.7771 13.0744 51.5951 13.1143 51.3953 13.1143C50.9914 13.1143 50.6673 12.9723 50.6673 12.3242V8.79971H52.0123V7.55682Z" fill="#18216D"/>
<path d="M53.3562 14.375H54.9631V7.55682H53.3562V14.375ZM54.1641 6.58913C54.6746 6.58913 55.0918 6.19851 55.0918 5.7191C55.0918 5.23526 54.6746 4.84464 54.1641 4.84464C53.6492 4.84464 53.2319 5.23526 53.2319 5.7191C53.2319 6.19851 53.6492 6.58913 54.1641 6.58913Z" fill="#18216D"/>
<path d="M58.2224 10.38C58.2224 9.39453 58.8172 8.82635 59.665 8.82635C60.4951 8.82635 60.9923 9.37233 60.9923 10.2823V14.375H62.5991V10.0337C62.6036 8.40021 61.6714 7.46804 60.2643 7.46804C59.2433 7.46804 58.542 7.95632 58.2312 8.71537H58.1513V7.55682H56.6155V14.375H58.2224V10.38Z" fill="#18216D"/>
<path d="M67.1979 17.0739C69.04 17.0739 70.3983 16.2305 70.3983 14.486V7.55682H68.8136V8.6843H68.7249C68.4807 8.19158 67.9702 7.46804 66.7673 7.46804C65.1915 7.46804 63.953 8.70206 63.953 10.9437C63.953 13.1676 65.1915 14.2773 66.7628 14.2773C67.9303 14.2773 68.4763 13.6515 68.7249 13.1499H68.8048V14.4416C68.8048 15.4448 68.1389 15.8576 67.2245 15.8576C66.2568 15.8576 65.8307 15.4004 65.6354 15.0009L64.1883 15.3516C64.4812 16.3059 65.4622 17.0739 67.1979 17.0739ZM67.2112 13.0167C66.1503 13.0167 65.591 12.191 65.591 10.9348C65.591 9.69638 66.1414 8.7864 67.2112 8.7864C68.2454 8.7864 68.8136 9.64311 68.8136 10.9348C68.8136 12.2354 68.2366 13.0167 67.2112 13.0167Z" fill="#18216D"/>
</svg>
