<svg width="56" height="60" viewBox="0 0 56 60" fill="none" xmlns="http://www.w3.org/2000/svg">
<path d="M1.479 18.8003H12.2486V22.7444H16.7843V18.8003H19.5671V14.9986H16.7843V0.306872H10.8462L1.479 15.0644V18.8003ZM12.3362 14.9986H6.25574V14.8233L12.1609 5.47802H12.3362V14.9986Z" fill="#18216D"/>
<path d="M24.5636 23.0292C25.966 23.0292 27.1821 21.857 27.193 20.3998C27.1821 18.9646 25.966 17.7924 24.5636 17.7924C23.1175 17.7924 21.9233 18.9646 21.9342 20.3998C21.9233 21.857 23.1175 23.0292 24.5636 23.0292Z" fill="#18216D"/>
<path d="M38.1633 0.000108915C33.1455 -0.0218034 29.7602 3.26494 29.7821 7.77874C29.793 11.9639 32.6963 14.9986 36.6733 14.9986C39.1383 14.9986 41.3295 13.8044 42.3265 11.8324H42.4799C42.4689 16.2805 40.9241 18.9865 37.9989 18.9865C36.2789 18.9865 35.0409 18.0443 34.6793 16.4119H30.0012C30.4394 20.1917 33.5071 23.0511 37.9989 23.0511C43.5535 23.0511 47.1361 18.5593 47.1251 10.945C47.1142 2.81575 42.7757 0.0220212 38.1633 0.000108915ZM38.1961 3.72509C40.3764 3.72509 41.9869 5.49993 42.0088 7.63631C42.0197 9.78365 40.3216 11.5585 38.1523 11.5585C35.9612 11.5585 34.3945 9.84939 34.3835 7.64727C34.3616 5.45611 35.994 3.72509 38.1961 3.72509Z" fill="#18216D"/>
<path fill-rule="evenodd" clip-rule="evenodd" d="M8.42419 36.5413L5.68468 36.1433L4.46001 33.6609C4.42515 33.6017 4.36151 33.5652 4.29272 33.5652C4.22394 33.5652 4.1603 33.6017 4.12543 33.6609L2.9002 36.1428L0.159949 36.5413C0.0896573 36.5515 0.0312186 36.6007 0.00919999 36.6682C-0.0128186 36.7357 0.00540055 36.8099 0.0561986 36.8595L2.03903 38.7919L1.57104 41.5204C1.55909 41.5904 1.58786 41.6611 1.64526 41.7028C1.70266 41.7445 1.77876 41.7501 1.84161 41.7171L4.29207 40.429L6.74253 41.7166C6.80538 41.7495 6.88148 41.744 6.93888 41.7022C6.99628 41.6605 7.02505 41.5898 7.0131 41.5199L6.54511 38.7919L8.52794 36.8595C8.57873 36.8099 8.59697 36.7358 8.575 36.6682C8.55302 36.6007 8.49464 36.5515 8.42438 36.5413H8.42419Z" fill="#F5A623"/>
<path fill-rule="evenodd" clip-rule="evenodd" d="M20.0682 36.5413L17.3287 36.1433L16.1041 33.6609C16.0692 33.6017 16.0055 33.5652 15.9368 33.5652C15.868 33.5652 15.8043 33.6017 15.7695 33.6609L14.5442 36.1428L11.804 36.5413C11.7337 36.5515 11.6753 36.6007 11.6532 36.6682C11.6312 36.7357 11.6494 36.8099 11.7002 36.8595L13.6831 38.7919L13.2151 41.5204C13.2031 41.5904 13.2319 41.6611 13.2893 41.7028C13.3467 41.7445 13.4228 41.7501 13.4857 41.7171L15.9361 40.429L18.3866 41.7166C18.4494 41.7495 18.5255 41.744 18.5829 41.7022C18.6403 41.6605 18.6691 41.5898 18.6571 41.5199L18.1891 38.7919L20.172 36.8595C20.2228 36.8099 20.241 36.7358 20.219 36.6682C20.1971 36.6007 20.1387 36.5515 20.0684 36.5413H20.0682Z" fill="#F5A623"/>
<path fill-rule="evenodd" clip-rule="evenodd" d="M31.712 36.5413L28.9725 36.1433L27.7479 33.6609C27.713 33.6017 27.6493 33.5652 27.5806 33.5652C27.5118 33.5652 27.4481 33.6017 27.4133 33.6609L26.188 36.1428L23.4478 36.5413C23.3775 36.5515 23.3191 36.6007 23.297 36.6682C23.275 36.7357 23.2932 36.8099 23.344 36.8595L25.3269 38.7919L24.8589 41.5204C24.8469 41.5904 24.8757 41.6611 24.9331 41.7028C24.9905 41.7445 25.0666 41.7501 25.1295 41.7171L27.5799 40.429L30.0304 41.7166C30.0932 41.7495 30.1693 41.744 30.2267 41.7022C30.2841 41.6605 30.3129 41.5898 30.3009 41.5199L29.8329 38.7919L31.8158 36.8595C31.8666 36.8099 31.8848 36.7358 31.8628 36.6682C31.8409 36.6007 31.7825 36.5515 31.7122 36.5413H31.712Z" fill="#F5A623"/>
<path fill-rule="evenodd" clip-rule="evenodd" d="M43.3561 36.5413L40.6166 36.1433L39.3919 33.6609C39.357 33.6017 39.2934 33.5652 39.2246 33.5652C39.1558 33.5652 39.0922 33.6017 39.0573 33.6609L37.8321 36.1428L35.0918 36.5413C35.0215 36.5515 34.9631 36.6007 34.9411 36.6682C34.9191 36.7357 34.9373 36.8099 34.9881 36.8595L36.9709 38.7919L36.5029 41.5204C36.491 41.5904 36.5197 41.6611 36.5771 41.7028C36.6345 41.7445 36.7106 41.7501 36.7735 41.7171L39.224 40.429L41.6744 41.7166C41.7373 41.7495 41.8134 41.744 41.8708 41.7022C41.9282 41.6605 41.9569 41.5898 41.945 41.5199L41.477 38.7919L43.4598 36.8595C43.5106 36.8099 43.5289 36.7358 43.5069 36.6682C43.4849 36.6007 43.4265 36.5515 43.3563 36.5413H43.3561Z" fill="#F5A623"/>
<path fill-rule="evenodd" clip-rule="evenodd" d="M55.0001 36.5413L52.2606 36.1433L51.0359 33.6609C51.0011 33.6017 50.9374 33.5652 50.8687 33.5652C50.7999 33.5652 50.7362 33.6017 50.7014 33.6609L49.4761 36.1428L46.7359 36.5413C46.6656 36.5515 46.6071 36.6007 46.5851 36.6682C46.5631 36.7357 46.5813 36.8099 46.6321 36.8595L48.615 38.7919L48.147 41.5204C48.135 41.5904 48.1638 41.6611 48.2212 41.7028C48.2786 41.7445 48.3547 41.7501 48.4175 41.7171L50.868 40.429L53.3185 41.7166C53.3813 41.7495 53.4574 41.744 53.5148 41.7022C53.5722 41.6605 53.601 41.5898 53.589 41.5199L53.121 38.7919L55.1039 36.8595C55.1547 36.8099 55.1729 36.7358 55.1509 36.6682C55.1289 36.6007 55.0706 36.5515 55.0003 36.5413H55.0001Z" fill="#F5A623"/>
<path d="M0.619385 58.2237H4.39403V57.581H1.61271V57.5342L2.95663 56.0968C3.98501 54.9954 4.28885 54.4812 4.28885 53.818C4.28885 52.8948 3.54094 52.1586 2.48918 52.1586C1.44034 52.1586 0.642757 52.8714 0.642757 53.9232H1.33224C1.33224 53.2425 1.7734 52.7896 2.4658 52.7896C3.11439 52.7896 3.61105 53.187 3.61105 53.818C3.61105 54.3702 3.28676 54.7792 2.59435 55.5359L0.619385 57.6978V58.2237Z" fill="#18216D"/>
<path d="M6.6407 57.4057H5.89278L5.85773 57.7329C5.773 58.5246 5.60647 59.3135 5.53051 59.6845H6.05639C6.19663 59.2872 6.49462 58.3873 6.59396 57.7212L6.6407 57.4057Z" fill="#18216D"/>
<path d="M9.75507 52.1586C8.53971 52.144 7.75673 53.0584 7.75673 54.1569C7.75673 55.3139 8.60983 56.1436 9.63821 56.1436C10.2576 56.1436 10.7835 55.8397 11.1107 55.3489H11.1574C11.1574 56.8214 10.5848 57.6628 9.66158 57.6628C9.03053 57.6628 8.64488 57.2655 8.51634 56.7162H7.80348C7.94371 57.6628 8.65657 58.3055 9.66158 58.3055C11.0055 58.3055 11.8352 57.1135 11.8352 54.9866C11.8352 52.7896 10.7367 52.1703 9.75507 52.1586ZM9.75507 52.8013C10.503 52.8013 11.0522 53.4441 11.0522 54.1452C11.0522 54.8581 10.4679 55.5008 9.7317 55.5008C8.99547 55.5008 8.45791 54.9048 8.45791 54.1569C8.45791 53.409 9.01884 52.8013 9.75507 52.8013Z" fill="#18216D"/>
<path d="M15.0058 58.3055C16.1657 58.3055 17.0275 57.5781 17.0275 56.5993C17.0275 55.8397 16.5776 55.2876 15.8239 55.1619V55.1152C16.4286 54.9311 16.8055 54.4345 16.8055 53.7596C16.8055 52.9123 16.1365 52.1586 15.0292 52.1586C13.995 52.1586 13.136 52.7955 13.101 53.7362H13.8022C13.8284 53.1402 14.3952 52.7896 15.0175 52.7896C15.6778 52.7896 16.1043 53.1899 16.1043 53.7946C16.1043 54.4257 15.6106 54.8347 14.9007 54.8347H14.4215V55.4775H14.9007C15.8093 55.4775 16.3147 55.9391 16.3147 56.5993C16.3147 57.2333 15.7625 57.6628 14.9941 57.6628C14.3017 57.6628 13.7525 57.3064 13.7087 56.7279H12.9724C13.0163 57.6686 13.846 58.3055 15.0058 58.3055Z" fill="#18216D"/>
<path d="M20.139 58.3055C21.3339 58.3055 22.1666 57.6073 22.1724 56.6344C22.1666 55.8777 21.6611 55.235 21.0155 55.1152V55.0801C21.5764 54.9341 21.9445 54.3848 21.9504 53.7479C21.9445 52.8364 21.1791 52.1586 20.139 52.1586C19.0872 52.1586 18.3218 52.8364 18.3276 53.7479C18.3218 54.3848 18.6899 54.9341 19.2625 55.0801V55.1152C18.6052 55.235 18.0998 55.8777 18.1056 56.6344C18.0998 57.6073 18.9324 58.3055 20.139 58.3055ZM20.139 57.6628C19.318 57.6628 18.8126 57.2421 18.8185 56.5993C18.8126 55.9245 19.3706 55.4424 20.139 55.4424C20.8957 55.4424 21.4537 55.9245 21.4595 56.5993C21.4537 57.2421 20.9483 57.6628 20.139 57.6628ZM20.139 54.823C19.4846 54.823 19.023 54.414 19.0288 53.7946C19.023 53.187 19.467 52.7896 20.139 52.7896C20.7993 52.7896 21.2433 53.187 21.2492 53.7946C21.2433 54.414 20.7817 54.823 20.139 54.823Z" fill="#18216D"/>
<path d="M25.7111 58.2237H26.4357V55.8865H27.7445C27.7971 55.8865 27.8468 55.8865 27.8964 55.8836L29.1586 58.2237H30L28.6473 55.7521C29.4098 55.4921 29.7662 54.8698 29.7662 54.0751C29.7662 53.0175 29.1352 52.2404 27.7328 52.2404H25.7111V58.2237ZM26.4357 55.2321V52.8831H27.7095C28.6794 52.8831 29.0534 53.3564 29.0534 54.0751C29.0534 54.7938 28.6794 55.2321 27.7212 55.2321H26.4357Z" fill="#18216D"/>
<path d="M32.2006 58.3289C32.9836 58.3289 33.3926 57.9082 33.5328 57.616H33.5679V58.2237H34.2574V55.2671C34.2574 53.8414 33.1706 53.6778 32.598 53.6778C31.9202 53.6778 31.1489 53.9115 30.7983 54.7295L31.4527 54.9633C31.6046 54.6361 31.964 54.2855 32.6213 54.2855C33.2553 54.2855 33.5679 54.6214 33.5679 55.197V55.2204C33.5679 55.5534 33.229 55.5242 32.411 55.6294C31.5783 55.7375 30.6697 55.9215 30.6697 56.9499C30.6697 57.8264 31.3475 58.3289 32.2006 58.3289ZM32.3058 57.7095C31.7565 57.7095 31.3592 57.4641 31.3592 56.985C31.3592 56.4591 31.8383 56.2955 32.3759 56.2254C32.6681 56.1903 33.451 56.1085 33.5679 55.9683V56.5993C33.5679 57.1603 33.1238 57.7095 32.3058 57.7095Z" fill="#18216D"/>
<path d="M37.4674 53.7362H36.5092V52.6611H35.8197V53.7362H35.1419V54.3205H35.8197V57.1252C35.8197 57.9082 36.4507 58.2822 37.0351 58.2822C37.2922 58.2822 37.4558 58.2354 37.5492 58.2003L37.409 57.581C37.3506 57.5927 37.2571 57.616 37.1052 57.616C36.8013 57.616 36.5092 57.5225 36.5092 56.9382V54.3205H37.4674V53.7362Z" fill="#18216D"/>
<path d="M38.5046 58.2237H39.1941V53.7362H38.5046V58.2237ZM38.8552 52.9883C39.124 52.9883 39.346 52.778 39.346 52.5209C39.346 52.2638 39.124 52.0534 38.8552 52.0534C38.5864 52.0534 38.3644 52.2638 38.3644 52.5209C38.3644 52.778 38.5864 52.9883 38.8552 52.9883Z" fill="#18216D"/>
<path d="M41.1464 55.5242C41.1464 54.7412 41.6314 54.2972 42.2917 54.2972C42.9315 54.2972 43.32 54.7149 43.32 55.419V58.2237H44.0095V55.3723C44.0095 54.227 43.3989 53.6778 42.4903 53.6778C41.8125 53.6778 41.3918 53.9816 41.1815 54.4374H41.123V53.7362H40.4569V58.2237H41.1464V55.5242Z" fill="#18216D"/>
<path d="M47.0808 60C48.1559 60 49.0207 59.5092 49.0207 58.3523V53.7362H48.3546V54.4491H48.2845C48.1326 54.2154 47.8521 53.6778 46.9756 53.6778C45.8421 53.6778 45.0591 54.5776 45.0591 55.9566C45.0591 57.3589 45.8771 58.1536 46.9639 58.1536C47.8404 58.1536 48.1209 57.6394 48.2728 57.394H48.3312V58.3055C48.3312 59.0534 47.8054 59.3923 47.0808 59.3923C46.2657 59.3923 45.9794 58.9629 45.7953 58.7145L45.2461 59.1002C45.5265 59.5706 46.0787 60 47.0808 60ZM47.0574 57.5342C46.1927 57.5342 45.7486 56.8798 45.7486 55.9449C45.7486 55.0334 46.181 54.2972 47.0574 54.2972C47.8988 54.2972 48.3429 54.975 48.3429 55.9449C48.3429 56.9382 47.8872 57.5342 47.0574 57.5342Z" fill="#18216D"/>
</svg>
